<?xml version="1.0" encoding="iso-8859-1"?>
<svg version="1.1" id="Layer_1" xmlns="http://www.w3.org/2000/svg" xmlns:xlink="http://www.w3.org/1999/xlink" x="0px" y="0px"
	 viewBox="0 0 512 512" style="enable-background:new 0 0 512 512;" xml:space="preserve">
<path fill="#301934" d="M73.143,0C32.812,0,0,32.812,0,73.143s32.812,73.143,73.143,73.143s73.143-32.812,73.143-73.143
	S113.474,0,73.143,0z"/>
<path fill="#301934" d="M438.857,146.286c40.331,0,73.143-32.812,73.143-73.143S479.188,0,438.857,0
	s-73.143,32.812-73.143,73.143S398.526,146.286,438.857,146.286z"/>
<path fill="#301934" d="M256,0c-40.331,0-73.143,32.812-73.143,73.143s32.812,73.143,73.143,73.143
	s73.143-32.812,73.143-73.143S296.331,0,256,0z"/>
<g>
	<path fill="#301934" d="M438.857,365.714c-40.331,0-73.143,32.812-73.143,73.143S398.526,512,438.857,512
		S512,479.188,512,438.857S479.188,365.714,438.857,365.714z"/>
	<path fill="#301934" d="M438.857,182.857c-40.331,0-73.143,32.812-73.143,73.143s32.812,73.143,73.143,73.143
		S512,296.331,512,256S479.188,182.857,438.857,182.857z"/>
</g>
<path fill="#301934" d="M256,182.857c-40.331,0-73.143,32.812-73.143,73.143s32.812,73.143,73.143,73.143
	s73.143-32.812,73.143-73.143S296.331,182.857,256,182.857z"/>
<g>
	<path fill="#301934" d="M256,146.286c40.331,0,73.143-32.812,73.143-73.143S296.331,0,256,0"/>
	<path fill="#301934" d="M256,329.143c40.331,0,73.143-32.812,73.143-73.143S296.331,182.857,256,182.857"/>
</g>
<g>
</g>
<g>
</g>
<g>
</g>
<g>
</g>
<g>
</g>
<g>
</g>
<g>
</g>
<g>
</g>
<g>
</g>
<g>
</g>
<g>
</g>
<g>
</g>
<g>
</g>
<g>
</g>
<g>
</g>
</svg>
